<svg xmlns="http://www.w3.org/2000/svg" viewBox="0 0 200 500" fill="none" stroke="#33ff33" stroke-width="2" stroke-linecap="round" stroke-linejoin="round">
  <!-- HEAD - large, elongated oval -->
  <path d="M100 10 C72 10 55 28 55 52 C55 72 62 86 74 94 C78 97 82 99 86 100 L86 108 C86 114 90 118 95 119 L95 126 L105 126 L105 119 C110 118 114 114 114 108 L114 100 C118 99 122 97 126 94 C138 86 145 72 145 52 C145 28 128 10 100 10 Z"/>
  <!-- Large almond eyes -->
  <path d="M68 52 C72 44 82 40 90 44 C96 47 98 52 96 57 C92 63 80 64 72 60 C68 57 66 54 68 52 Z"/>
  <path d="M132 52 C128 44 118 40 110 44 C104 47 102 52 104 57 C108 63 120 64 128 60 C132 57 134 54 132 52 Z"/>
  <!-- Eye pupils -->
  <ellipse cx="82" cy="52" rx="5" ry="7" fill="#33ff33" opacity="0.3"/>
  <ellipse cx="118" cy="52" rx="5" ry="7" fill="#33ff33" opacity="0.3"/>
  <!-- Nose - tiny slits -->
  <path d="M97 78 L97 84 M103 78 L103 84"/>
  <!-- Mouth - thin line -->
  <path d="M90 92 C94 94 106 94 110 92"/>
  <!-- NECK - very thin -->
  <path d="M95 126 L93 138 L107 138 L105 126"/>
  <!-- SHOULDERS - narrow, sloped -->
  <path d="M93 138 C84 138 68 142 58 150"/>
  <path d="M107 138 C116 138 132 142 142 150"/>
  <!-- TORSO - small, narrow -->
  <path d="M58 150 L52 210 L54 260 L64 285 L80 295 L120 295 L136 285 L146 260 L148 210 L142 150"/>
  <!-- Collarbone -->
  <path d="M72 148 C82 144 100 143 128 148"/>
  <!-- Rib suggestion -->
  <path d="M72 180 C80 176 100 175 128 180"/>
  <path d="M70 200 C78 196 100 195 130 200"/>
  <!-- LEFT ARM - long, thin -->
  <path d="M58 150 C48 158 36 180 30 210 C26 232 26 255 28 272 C29 280 30 286 32 290"/>
  <!-- Left hand - 4 long fingers -->
  <path d="M32 290 C30 298 28 304 26 308 M32 290 C31 300 30 306 30 310 M32 290 C33 300 33 306 33 310 M32 290 C34 299 35 305 36 308"/>
  <!-- RIGHT ARM -->
  <path d="M142 150 C152 158 164 180 170 210 C174 232 174 255 172 272 C171 280 170 286 168 290"/>
  <!-- Right hand -->
  <path d="M168 290 C170 298 172 304 174 308 M168 290 C169 300 170 306 170 310 M168 290 C167 300 167 306 167 310 M168 290 C166 299 165 305 164 308"/>
  <!-- LEFT LEG - thin -->
  <path d="M80 295 C76 318 72 360 70 400 C68 432 68 462 70 482"/>
  <path d="M80 295 C82 318 82 360 82 400 C82 432 80 462 78 482"/>
  <!-- Left foot - small, 4 toes -->
  <path d="M70 482 C67 486 60 488 54 486 C50 484 50 480 54 478 C60 476 68 478 78 482"/>
  <path d="M56 478 L54 484 M60 477 L59 484 M64 477 L63 484 M68 478 L68 484"/>
  <!-- RIGHT LEG -->
  <path d="M120 295 C124 318 128 360 130 400 C132 432 132 462 130 482"/>
  <path d="M120 295 C118 318 118 360 118 400 C118 432 120 462 122 482"/>
  <!-- Right foot -->
  <path d="M130 482 C133 486 140 488 146 486 C150 484 150 480 146 478 C140 476 132 478 122 482"/>
  <path d="M144 478 L146 484 M140 477 L141 484 M136 477 L137 484 M132 478 L132 484"/>
</svg>
