<svg xmlns="http://www.w3.org/2000/svg" viewBox="0 0 200 480" fill="none" stroke="#33ff33" stroke-width="1.2" stroke-linecap="round" stroke-linejoin="round" opacity="0.85">
  <!-- HEAD -->
  <ellipse cx="100" cy="38" rx="28" ry="34" />
  <!-- Head grid lines -->
  <line x1="72" y1="30" x2="128" y2="30"/>
  <line x1="72" y1="38" x2="128" y2="38"/>
  <line x1="72" y1="46" x2="128" y2="46"/>
  <line x1="86" y1="4" x2="86" y2="72"/>
  <line x1="100" y1="4" x2="100" y2="72"/>
  <line x1="114" y1="4" x2="114" y2="72"/>
  <!-- NECK -->
  <line x1="88" y1="72" x2="86" y2="90"/>
  <line x1="112" y1="72" x2="114" y2="90"/>
  <line x1="86" y1="82" x2="114" y2="82"/>
  <!-- SHOULDERS -->
  <line x1="86" y1="90" x2="50" y2="100"/>
  <line x1="114" y1="90" x2="150" y2="100"/>
  <!-- TORSO outline -->
  <path d="M86 90 L80 90 L50 100 L44 200 L56 200 L60 280 L80 280 L80 320 L120 320 L120 280 L140 280 L144 200 L156 200 L150 100 L120 90 L114 90"/>
  <!-- Torso grid -->
  <line x1="50" y1="120" x2="150" y2="120"/>
  <line x1="48" y1="150" x2="152" y2="150"/>
  <line x1="46" y1="180" x2="154" y2="180"/>
  <line x1="45" y1="210" x2="155" y2="210"/>
  <line x1="60" y1="240" x2="140" y2="240"/>
  <line x1="62" y1="270" x2="138" y2="270"/>
  <!-- Torso vertical lines -->
  <line x1="70" y1="90" x2="65" y2="280"/>
  <line x1="85" y1="90" x2="82" y2="280"/>
  <line x1="100" y1="90" x2="100" y2="280"/>
  <line x1="115" y1="90" x2="118" y2="280"/>
  <line x1="130" y1="90" x2="135" y2="280"/>
  <!-- LEFT ARM -->
  <path d="M50 100 L28 130 L22 180 L18 230 L24 260 L30 280"/>
  <line x1="50" y1="100" x2="26" y2="100"/>
  <line x1="28" y1="130" x2="20" y2="130"/>
  <line x1="22" y1="180" x2="16" y2="180"/>
  <line x1="18" y1="230" x2="14" y2="230"/>
  <!-- LEFT ARM grid -->
  <line x1="38" y1="115" x2="24" y2="115"/>
  <line x1="34" y1="155" x2="19" y2="155"/>
  <line x1="30" y1="205" x2="16" y2="205"/>
  <!-- RIGHT ARM -->
  <path d="M150 100 L172 130 L178 180 L182 230 L176 260 L170 280"/>
  <line x1="150" y1="100" x2="174" y2="100"/>
  <line x1="172" y1="130" x2="180" y2="130"/>
  <line x1="178" y1="180" x2="184" y2="180"/>
  <line x1="182" y1="230" x2="186" y2="230"/>
  <!-- RIGHT ARM grid -->
  <line x1="162" y1="115" x2="176" y2="115"/>
  <line x1="166" y1="155" x2="181" y2="155"/>
  <line x1="170" y1="205" x2="184" y2="205"/>
  <!-- LEFT LEG -->
  <path d="M80 320 L74 370 L70 420 L68 470 L80 476 L88 476 L90 420 L88 370 L88 320"/>
  <!-- Left leg grid -->
  <line x1="74" y1="345" x2="88" y2="345"/>
  <line x1="72" y1="395" x2="89" y2="395"/>
  <line x1="69" y1="445" x2="89" y2="445"/>
  <line x1="68" y1="470" x2="90" y2="470"/>
  <!-- LEFT LEG vertical -->
  <line x1="80" y1="320" x2="78" y2="476"/>
  <!-- RIGHT LEG -->
  <path d="M120 320 L126 370 L130 420 L132 470 L120 476 L112 476 L110 420 L112 370 L112 320"/>
  <!-- Right leg grid -->
  <line x1="126" y1="345" x2="112" y2="345"/>
  <line x1="128" y1="395" x2="111" y2="395"/>
  <line x1="131" y1="445" x2="111" y2="445"/>
  <line x1="132" y1="470" x2="110" y2="470"/>
  <!-- RIGHT LEG vertical -->
  <line x1="120" y1="320" x2="122" y2="476"/>
  <!-- Pelvis grid -->
  <line x1="60" y1="300" x2="140" y2="300"/>
  <line x1="62" y1="310" x2="138" y2="310"/>
</svg>
