<svg xmlns="http://www.w3.org/2000/svg" viewBox="0 0 200 500" fill="none" stroke="#33ff33" stroke-width="2" stroke-linecap="round" stroke-linejoin="round">
  <!-- HEAD -->
  <path d="M100 15 C82 15 70 27 70 44 C70 58 76 68 85 73 L85 82 C85 88 88 92 92 93 L92 98 L108 98 L108 93 C112 92 115 88 115 82 L115 73 C124 68 130 58 130 44 C130 27 118 15 100 15 Z"/>
  <!-- Hair suggestion -->
  <path d="M72 38 C72 28 80 18 100 16 C120 18 128 28 128 38"/>
  <!-- Eyes -->
  <ellipse cx="88" cy="44" rx="5" ry="3.5"/>
  <ellipse cx="112" cy="44" rx="5" ry="3.5"/>
  <!-- Nose -->
  <path d="M97 52 L96 60 L100 62 L104 60 L103 52"/>
  <!-- Mouth -->
  <path d="M93 68 C96 71 104 71 107 68"/>
  <!-- NECK -->
  <path d="M92 98 L90 110 L110 110 L108 98"/>
  <!-- SHOULDERS -->
  <path d="M90 110 C80 110 58 115 50 125"/>
  <path d="M110 110 C120 110 142 115 150 125"/>
  <!-- TORSO -->
  <path d="M50 125 L44 200 L48 260 L60 290 L80 300 L120 300 L140 290 L152 260 L156 200 L150 125"/>
  <!-- Chest detail -->
  <path d="M80 145 C85 140 95 138 100 140 C105 138 115 140 120 145"/>
  <circle cx="84" cy="148" r="3"/>
  <circle cx="116" cy="148" r="3"/>
  <!-- Navel -->
  <path d="M98 230 C99 233 101 233 102 230"/>
  <!-- LEFT ARM -->
  <path d="M50 125 C40 130 28 155 24 190 C22 215 24 240 28 260 C30 270 32 278 34 282"/>
  <!-- Left hand -->
  <path d="M34 282 C32 290 30 295 28 298 M34 282 C33 292 32 298 31 302 M34 282 C35 292 35 298 35 302 M34 282 C36 291 37 297 38 300 M34 282 C38 288 40 293 40 296"/>
  <!-- RIGHT ARM -->
  <path d="M150 125 C160 130 172 155 176 190 C178 215 176 240 172 260 C170 270 168 278 166 282"/>
  <!-- Right hand -->
  <path d="M166 282 C168 290 170 295 172 298 M166 282 C167 292 168 298 169 302 M166 282 C165 292 165 298 165 302 M166 282 C164 291 163 297 162 300 M166 282 C162 288 160 293 160 296"/>
  <!-- LEFT LEG -->
  <path d="M80 300 C76 320 72 360 70 400 C68 430 68 460 70 480"/>
  <path d="M80 300 C82 320 82 360 82 400 C82 430 80 460 78 480"/>
  <!-- Left foot -->
  <path d="M70 480 C66 484 58 486 52 484 C48 482 46 478 48 476 C52 474 60 476 68 478 L78 480"/>
  <!-- RIGHT LEG -->
  <path d="M120 300 C124 320 128 360 130 400 C132 430 132 460 130 480"/>
  <path d="M120 300 C118 320 118 360 118 400 C118 430 120 460 122 480"/>
  <!-- Right foot -->
  <path d="M130 480 C134 484 142 486 148 484 C152 482 154 478 152 476 C148 474 140 476 132 478 L122 480"/>
</svg>
